# Blender 5.1.0
# www.blender.org
mtllib arrow.mtl
o Cube
v -0.366609 0.788690 0.366609
v -0.366609 3.357756 0.366609
v -0.366609 0.788690 -0.366609
v -0.366609 3.357756 -0.366609
v 0.366609 0.788690 0.366609
v 0.366609 3.357756 0.366609
v 0.366609 0.788690 -0.366609
v 0.366609 3.357756 -0.366609
v -0.370000 -0.015156 0.000000
v 0.370000 -0.015156 0.000000
v -0.370000 0.843220 0.866025
v 0.370000 0.843220 0.866025
v -0.370000 0.843220 -0.866025
v 0.370000 0.843220 -0.866025
vn -1.0000 -0.0000 -0.0000
vn -0.0000 -0.0000 -1.0000
vn 1.0000 -0.0000 -0.0000
vn -0.0000 -0.0000 1.0000
vn -0.0000 -1.0000 -0.0000
vn -0.0000 1.0000 -0.0000
vn -0.0000 -0.7102 0.7040
vn -0.0000 -0.7102 -0.7040
vt 0.625000 0.000000
vt 0.375000 0.250000
vt 0.375000 0.000000
vt 0.625000 0.250000
vt 0.375000 0.500000
vt 0.625000 0.500000
vt 0.375000 0.750000
vt 0.625000 0.750000
vt 0.375000 1.000000
vt 0.125000 0.750000
vt 0.125000 0.500000
vt 0.875000 0.500000
vt 1.000000 1.000000
vt 0.666667 0.500000
vt 1.000000 0.500000
vt 0.666667 1.000000
vt 0.333333 0.500000
vt 0.457846 0.130000
vt 0.250000 0.490000
vt 0.042154 0.130000
vt 0.333333 1.000000
vt -0.000000 0.500000
vt 0.750000 0.490000
vt 0.957846 0.130000
vt 0.542154 0.130000
vt 0.625000 1.000000
vt 0.875000 0.750000
vt -0.000000 1.000000
s 0
f 2/1/1 3/2/1 1/3/1
f 4/4/2 7/5/2 3/2/2
f 8/6/3 5/7/3 7/5/3
f 6/8/4 1/9/4 5/7/4
f 7/5/5 1/10/5 3/11/5
f 4/12/6 6/8/6 8/6/6
f 10/13/7 11/14/7 9/15/7
f 12/16/6 13/17/6 11/14/6
f 12/18/3 10/19/3 14/20/3
f 14/21/8 9/22/8 13/17/8
f 9/23/1 11/24/1 13/25/1
f 2/1/1 4/4/1 3/2/1
f 4/4/2 8/6/2 7/5/2
f 8/6/3 6/8/3 5/7/3
f 6/8/4 2/26/4 1/9/4
f 7/5/5 5/7/5 1/10/5
f 4/12/6 2/27/6 6/8/6
f 10/13/7 12/16/7 11/14/7
f 12/16/6 14/21/6 13/17/6
f 14/21/8 10/28/8 9/22/8
