# Blender 5.1.0
# www.blender.org
mtllib Untitled.mtl
o Cube.009
v 0.541266 5.060757 -0.810204
v 0.541266 2.558815 -0.810204
v 0.541266 5.060757 0.810204
v 0.541266 2.558815 0.810204
v -0.541266 5.060757 -0.810204
v -0.541266 2.558815 -0.810204
v -0.541266 5.060757 0.810204
v -0.541266 2.558815 0.810204
v 0.849662 1.326437 -2.927604
v 0.849662 -0.041193 -2.927604
v 0.849662 1.326437 -0.927604
v 0.849662 -0.041193 -0.927604
v -1.150338 1.326437 -2.927604
v -1.150338 -0.041193 -2.927604
v -1.150338 1.326437 -0.927604
v -1.150338 -0.041193 -0.927604
v 1.178035 1.158641 -4.108702
v 1.178035 -0.038723 -4.108702
v 1.178035 1.158641 -2.923455
v 1.178035 -0.038723 -2.923455
v -0.821965 1.158641 -4.108702
v -0.821965 -0.038723 -4.108702
v -0.821965 1.158641 -2.923455
v -0.821965 -0.038723 -2.923455
v 2.864337 1.496961 -2.609935
v 2.864337 -0.043323 -2.609935
v 2.864337 1.496961 0.684657
v 2.864337 -0.043323 0.684657
v 0.864337 1.496961 -2.609935
v 0.864337 -0.043323 -2.609935
v 0.864337 1.496961 0.684657
v 0.864337 -0.043323 0.684657
v -2.850079 1.326437 1.095182
v -2.850079 -0.041193 1.095182
v -0.850079 1.326437 1.095182
v -0.850079 -0.041193 1.095182
v -2.850079 1.326437 3.095182
v -2.850079 -0.041193 3.095182
v -0.850079 1.326437 3.095182
v -0.850079 -0.041193 3.095182
v -2.532410 1.496961 -0.919493
v -2.532410 -0.043323 -0.919493
v 0.762181 1.496961 -0.919493
v 0.762181 -0.043323 -0.919493
v -2.532410 1.496961 1.080507
v -2.532410 -0.043323 1.080507
v 0.762181 1.496961 1.080507
v 0.762181 -0.043323 1.080507
v -4.031178 1.158641 0.766809
v -4.031178 -0.038723 0.766809
v -2.845931 1.158641 0.766809
v -2.845931 -0.038723 0.766809
v -4.031178 1.158641 2.766809
v -4.031178 -0.038723 2.766809
v -2.845931 1.158641 2.766809
v -2.845931 -0.038723 2.766809
v 0.437244 1.326437 2.710174
v 0.437244 -0.041193 2.710174
v 2.437243 1.326437 2.710174
v 2.437243 -0.041193 2.710174
v 0.437244 1.326437 4.710174
v 0.437244 -0.041193 4.710174
v 2.437244 1.326437 4.710174
v 2.437244 -0.041193 4.710174
v 0.754912 1.496961 0.695499
v 0.754912 -0.043323 0.695499
v 4.049504 1.496961 0.695499
v 4.049504 -0.043323 0.695499
v 0.754912 1.496961 2.695499
v 0.754912 -0.043323 2.695499
v 4.049504 1.496961 2.695499
v 4.049504 -0.043323 2.695499
v -0.743856 1.158641 2.381801
v -0.743856 -0.038723 2.381801
v 0.441391 1.158641 2.381801
v 0.441391 -0.038723 2.381801
v -0.743856 1.158641 4.381801
v -0.743856 -0.038723 4.381801
v 0.441391 1.158641 4.381801
v 0.441391 -0.038723 4.381801
v 0.735163 2.541298 1.050292
v 0.735163 -0.007073 1.050292
v 0.735163 2.541298 2.461008
v 0.735163 -0.007073 2.461008
v -0.726035 2.541298 1.050292
v -0.726035 -0.007073 1.050292
v -0.726035 2.541298 2.461008
v -0.726035 -0.007073 2.461008
v 1.178035 2.681111 -1.456627
v 1.178035 1.483747 -1.456627
v 1.178035 2.681111 1.106700
v 1.178035 1.483747 1.106700
v -0.821965 2.681111 -1.456627
v -0.821965 1.483747 -1.456627
v -0.821965 2.681111 1.106700
v -0.821965 1.483747 1.106700
v -0.771996 2.508286 1.400014
v -0.771996 1.310922 1.400014
v -0.771996 2.508286 2.393031
v -0.771996 1.310922 2.393031
v -2.415864 2.508286 1.400014
v -2.415864 1.310922 1.400014
v -2.415864 2.508286 2.393031
v -2.415864 1.310922 2.393031
v 2.329339 3.917027 1.227668
v 2.329339 1.415085 1.227668
v 2.329339 3.917027 2.565378
v 2.329339 1.415085 2.565378
v 0.903495 3.917027 1.227668
v 0.903495 1.415085 1.227668
v 0.903495 3.917027 2.565378
v 0.903495 1.415085 2.565378
vn -0.0000 1.0000 -0.0000
vn -0.0000 -0.0000 1.0000
vn -1.0000 -0.0000 -0.0000
vn -0.0000 -1.0000 -0.0000
vn 1.0000 -0.0000 -0.0000
vn -0.0000 -0.0000 -1.0000
vt 0.531514 0.254925
vt 0.441989 0.165400
vt 0.531514 0.165400
vt 0.000000 0.819906
vt 0.089525 0.730381
vt 0.089525 0.819906
vt 0.814437 0.254925
vt 0.903962 0.165400
vt 0.903962 0.254925
vt 0.212500 0.819906
vt 0.122975 0.730381
vt 0.212500 0.730381
vt 0.000000 0.909431
vt 0.089525 0.819906
vt 0.089525 0.909431
vt 0.235521 0.874809
vt 0.325046 0.785284
vt 0.325046 0.874809
vt 0.662291 0.603262
vt 0.551794 0.437862
vt 0.662291 0.437862
vt 0.276109 0.619884
vt 0.325046 0.454484
vt 0.325046 0.619884
vt 0.949063 0.110497
vt 0.997999 0.000000
vt 0.997999 0.110497
vt 0.551794 0.603262
vt 0.441297 0.437862
vt 0.906218 0.252117
vt 0.955155 0.141620
vt 0.955155 0.252117
vt 0.569799 0.879159
vt 0.618736 0.713759
vt 0.618736 0.879159
vt 0.759322 0.165400
vt 0.693839 -0.000000
vt 0.759322 0.000000
vt 0.855868 0.603262
vt 0.898713 0.437862
vt 0.898713 0.603262
vt 0.739587 0.255841
vt 0.782431 0.190358
vt 0.782431 0.255841
vt 0.739587 0.437862
vt 0.674104 0.272462
vt 0.739587 0.272462
vt 0.806931 0.668745
vt 0.849776 0.603262
vt 0.849776 0.668745
vt 0.863374 0.165400
vt 0.906218 0.000000
vt 0.906218 0.165400
vt 0.000000 0.454484
vt 0.165400 0.272462
vt 0.165400 0.454484
vt 0.795346 0.839096
vt 0.850461 0.673697
vt 0.850461 0.839096
vt 0.739587 0.437862
vt 0.794702 0.255841
vt 0.794702 0.437862
vt 0.165400 0.454484
vt 0.330800 0.272462
vt 0.330800 0.454484
vt 0.759322 0.182021
vt 0.814437 0.000000
vt 0.814437 0.182021
vt 0.794702 0.421241
vt 0.849817 0.255841
vt 0.849817 0.421241
vt 0.582917 0.272462
vt 0.472420 0.437862
vt 0.472420 0.272462
vt 0.717406 0.996221
vt 0.766343 0.885724
vt 0.766343 0.996221
vt 0.276109 0.785284
vt 0.220994 0.619884
vt 0.110497 0.454484
vt 0.220994 0.454484
vt 0.806931 0.603262
vt 0.855868 0.437862
vt 0.855868 0.603262
vt 0.235521 0.985306
vt 0.284458 0.874809
vt 0.284458 0.985306
vt 0.220994 0.000000
vt 0.110497 0.272462
vt 0.110497 0.000000
vt 0.850461 0.920141
vt 0.905576 0.809644
vt 0.905576 0.920141
vt 0.638724 0.272462
vt 0.693839 0.000000
vt 0.693839 0.272462
vt 0.331491 0.272462
vt 0.220994 0.000000
vt 0.331491 0.000000
vt 0.662291 0.710325
vt 0.717406 0.437862
vt 0.717406 0.710325
vt 0.795346 0.949593
vt 0.850461 0.839096
vt 0.850461 0.949593
vt 0.421986 0.603262
vt 0.520006 0.713759
vt 0.421986 0.713759
vt 0.955155 0.252117
vt 0.998000 0.141620
vt 0.998000 0.252117
vt 0.618026 0.701282
vt 0.660870 0.603262
vt 0.660870 0.701282
vt 0.618026 0.713759
vt 0.520006 0.603262
vt 0.618026 0.603262
vt 0.693839 0.263420
vt 0.736683 0.165400
vt 0.736683 0.263420
vt 0.330800 1.000000
vt 0.373644 0.889503
vt 0.373644 1.000000
vt 0.330800 0.603262
vt 0.441297 0.437862
vt 0.441297 0.603262
vt 0.569799 0.989656
vt 0.618736 0.989656
vt 0.814437 0.165400
vt 0.863374 0.000000
vt 0.863374 0.165400
vt 0.000000 0.454484
vt 0.110497 0.619884
vt -0.000000 0.619884
vt 0.330800 0.889503
vt 0.379737 0.724103
vt 0.379737 0.889503
vt 0.948420 0.920141
vt 0.997357 0.809644
vt 0.997357 0.920141
vt 0.000000 0.272462
vt 0.110497 0.000000
vt 0.110497 0.272462
vt 0.495893 0.942173
vt 0.551008 0.831676
vt 0.551008 0.942174
vt 0.583609 0.272462
vt 0.638724 0.000000
vt 0.331491 -0.000000
vt 0.441989 0.272462
vt 0.331491 0.272462
vt 0.220994 0.726946
vt 0.276109 0.454484
vt 0.276109 0.726946
vt 0.905324 0.784194
vt 0.960439 0.673697
vt 0.960439 0.784194
vt 0.000000 0.619884
vt 0.098020 0.730381
vt 0.000000 0.730381
vt 0.284458 0.985306
vt 0.327302 0.874809
vt 0.327302 0.985306
vt 0.531514 0.263420
vt 0.574358 0.165400
vt 0.574358 0.263420
vt 0.220994 0.730381
vt 0.122975 0.619884
vt 0.220994 0.619884
vt 0.941557 0.671830
vt 0.984401 0.573810
vt 0.984401 0.671830
vt 0.373644 1.000000
vt 0.416488 0.889503
vt 0.416488 1.000000
vt 0.795346 0.794537
vt 0.717406 0.673696
vt 0.795346 0.673697
vt 0.582917 0.393303
vt 0.674103 0.272462
vt 0.674103 0.393303
vt 0.717406 0.794537
vt 0.795346 0.885724
vt 0.717406 0.885724
vt 0.717406 0.831166
vt 0.639466 0.710325
vt 0.717406 0.710325
vt 0.122975 0.819906
vt 0.200915 0.911093
vt 0.122975 0.911093
vt 0.330800 0.724103
vt 0.421986 0.603262
vt 0.421986 0.724103
vt 0.583609 0.165400
vt 0.441989 -0.000000
vt 0.583609 0.000000
vt 0.898713 0.603262
vt 0.941557 0.437862
vt 0.941557 0.603262
vt 0.906218 0.141620
vt 0.949063 0.000000
vt 0.949063 0.141620
vt 0.472420 0.437862
vt 0.330800 0.272462
vt 0.905576 0.951264
vt 0.948420 0.809644
vt 0.948420 0.951264
vt 0.904679 0.421241
vt 0.947524 0.255841
vt 0.947524 0.421241
vt 0.904679 0.391789
vt 0.849817 0.255841
vt 0.904679 0.255841
vt 0.941557 0.573810
vt 0.984401 0.437862
vt 0.984401 0.573810
vt 0.849775 0.658125
vt 0.892620 0.603262
vt 0.892620 0.658125
vt 0.905324 0.809644
vt 0.850461 0.673697
vt 0.905324 0.673697
vt 0.220994 0.781809
vt 0.263839 0.726946
vt 0.263839 0.781809
vt 0.947524 0.391789
vt 0.990368 0.255841
vt 0.990368 0.391789
vt 0.495893 0.831676
vt 0.421986 0.713759
vt 0.495893 0.713759
vt 0.717406 0.673697
vt 0.806931 0.555779
vt 0.806931 0.673697
vt 0.421986 0.831676
vt 0.495893 0.921202
vt 0.421986 0.921202
vt 0.569799 0.831676
vt 0.495893 0.713759
vt 0.569799 0.713759
vt 0.639466 0.831166
vt 0.713372 0.920691
vt 0.639466 0.920691
vt 0.717406 0.555779
vt 0.806931 0.437862
vt 0.806931 0.555779
vt 0.441989 0.254925
vt 0.000000 0.730381
vt 0.814437 0.165400
vt 0.122974 0.819906
vt 0.000000 0.819906
vt 0.235521 0.785283
vt 0.276109 0.454484
vt 0.949063 0.000000
vt 0.441297 0.603262
vt 0.906218 0.141620
vt 0.569799 0.713759
vt 0.693839 0.165400
vt 0.855868 0.437862
vt 0.739587 0.190358
vt 0.674104 0.437862
vt 0.806931 0.603262
vt 0.863374 0.000000
vt 0.000000 0.272462
vt 0.739587 0.255841
vt 0.165400 0.272462
vt 0.759322 -0.000000
vt 0.794702 0.255841
vt 0.582917 0.437862
vt 0.717406 0.885724
vt 0.110497 0.619884
vt 0.806931 0.437862
vt 0.235521 0.874809
vt 0.220994 0.272462
vt 0.850461 0.809644
vt 0.638724 0.000000
vt 0.220994 0.272462
vt 0.795346 0.839096
vt 0.520006 0.603262
vt 0.955155 0.141620
vt 0.618026 0.603262
vt 0.520006 0.713759
vt 0.693839 0.165400
vt 0.330800 0.437862
vt 0.814437 0.000000
vt 0.110497 0.454484
vt 0.330800 0.724103
vt 0.948420 0.809644
vt 0.000000 0.000000
vt 0.495893 0.831676
vt 0.583609 -0.000000
vt 0.441989 0.000000
vt 0.220994 0.454484
vt 0.098020 0.619884
vt 0.284458 0.874809
vt 0.531514 0.165400
vt 0.122975 0.730381
vt 0.941557 0.573810
vt 0.373644 0.889503
vt 0.582917 0.272462
vt 0.795346 0.794537
vt 0.639466 0.831166
vt 0.200915 0.819906
vt 0.330800 0.603262
vt 0.441989 0.165400
vt 0.898713 0.437862
vt 0.906218 -0.000000
vt 0.330800 0.437862
vt 0.905576 0.809644
vt 0.849817 0.391789
vt 0.941557 0.437862
vt 0.849775 0.603262
vt 0.850461 0.809644
vt 0.220994 0.726946
vt 0.947524 0.255841
vt 0.421986 0.831676
vt 0.717406 0.555779
vt 0.495893 0.831676
vt 0.495893 0.831676
vt 0.713372 0.831166
vt 0.717406 0.437862
s 0
usemtl BoxPileMaterial
f 5/1/1 3/2/1 1/3/1
f 3/4/2 8/5/2 4/6/2
f 7/7/3 6/8/3 8/9/3
f 2/10/4 8/11/4 6/12/4
f 1/13/5 4/14/5 2/15/5
f 5/16/6 2/17/6 6/18/6
f 13/19/1 11/20/1 9/21/1
f 11/22/2 16/23/2 12/24/2
f 15/25/3 14/26/3 16/27/3
f 10/28/4 16/29/4 14/20/4
f 9/30/5 12/31/5 10/32/5
f 13/33/6 10/34/6 14/35/6
f 21/36/1 19/37/1 17/38/1
f 19/39/2 24/40/2 20/41/2
f 23/42/3 22/43/3 24/44/3
f 18/45/4 24/46/4 22/47/4
f 17/48/5 20/49/5 18/50/5
f 21/51/6 18/52/6 22/53/6
f 29/54/1 27/55/1 25/56/1
f 27/57/2 32/58/2 28/59/2
f 31/60/3 30/61/3 32/62/3
f 26/63/4 32/64/4 30/65/4
f 25/66/5 28/67/5 26/68/5
f 29/69/6 26/70/6 30/71/6
f 37/72/1 35/73/1 33/74/1
f 35/75/5 40/76/5 36/77/5
f 39/78/2 38/24/2 40/17/2
f 38/79/4 36/80/4 40/81/4
f 33/82/6 36/83/6 34/84/6
f 37/85/3 34/86/3 38/87/3
f 45/88/1 43/89/1 41/90/1
f 43/91/5 48/92/5 44/93/5
f 47/94/2 46/95/2 48/96/2
f 46/97/4 44/98/4 48/99/4
f 41/100/6 44/101/6 42/102/6
f 45/103/3 42/104/3 46/105/3
f 53/106/1 51/107/1 49/108/1
f 51/109/5 56/110/5 52/111/5
f 55/112/2 54/113/2 56/114/2
f 50/115/4 56/116/4 54/117/4
f 49/118/6 52/119/6 50/120/6
f 53/121/3 50/122/3 54/123/3
f 61/124/1 59/125/1 57/126/1
f 59/127/5 64/35/5 60/128/5
f 63/129/2 62/130/2 64/131/2
f 62/132/4 60/133/4 64/134/4
f 57/135/6 60/136/6 58/137/6
f 61/138/3 58/139/3 62/140/3
f 69/141/1 67/142/1 65/143/1
f 67/144/5 72/145/5 68/146/5
f 71/147/2 70/148/2 72/94/2
f 70/149/4 68/150/4 72/151/4
f 65/152/6 68/153/6 66/154/6
f 69/155/3 66/156/3 70/157/3
f 77/158/1 75/159/1 73/160/1
f 75/161/5 80/162/5 76/163/5
f 79/164/2 78/165/2 80/166/2
f 74/167/4 80/168/4 78/169/4
f 73/170/6 76/171/6 74/172/6
f 77/173/3 74/174/3 78/175/3
f 85/176/1 83/177/1 81/178/1
f 83/179/2 88/180/2 84/181/2
f 87/182/3 86/183/3 88/184/3
f 82/185/4 88/186/4 86/187/4
f 81/188/5 84/189/5 82/190/5
f 85/191/6 82/192/6 86/193/6
f 93/194/1 91/195/1 89/196/1
f 91/197/2 96/198/2 92/199/2
f 95/200/3 94/201/3 96/202/3
f 90/203/4 96/204/4 94/74/4
f 89/205/5 92/206/5 90/207/5
f 93/208/6 90/209/6 94/210/6
f 101/211/1 99/212/1 97/213/1
f 99/214/2 104/215/2 100/216/2
f 103/217/3 102/218/3 104/219/3
f 98/220/4 104/221/4 102/222/4
f 97/223/5 100/224/5 98/225/5
f 101/226/6 98/227/6 102/228/6
f 109/229/1 107/230/1 105/231/1
f 107/232/2 112/233/2 108/234/2
f 111/235/3 110/236/3 112/237/3
f 106/238/4 112/239/4 110/240/4
f 105/241/5 108/242/5 106/243/5
f 109/244/6 106/245/6 110/246/6
f 5/1/1 7/247/1 3/2/1
f 3/4/2 7/248/2 8/5/2
f 7/7/3 5/249/3 6/8/3
f 2/10/4 4/250/4 8/11/4
f 1/13/5 3/251/5 4/14/5
f 5/16/6 1/252/6 2/17/6
f 13/19/1 15/28/1 11/20/1
f 11/22/2 15/253/2 16/23/2
f 15/25/3 13/254/3 14/26/3
f 10/28/4 12/255/4 16/29/4
f 9/30/5 11/256/5 12/31/5
f 13/33/6 9/257/6 10/34/6
f 21/36/1 23/258/1 19/37/1
f 19/39/2 23/259/2 24/40/2
f 23/42/3 21/260/3 22/43/3
f 18/45/4 20/261/4 24/46/4
f 17/48/5 19/262/5 20/49/5
f 21/51/6 17/263/6 18/52/6
f 29/54/1 31/264/1 27/55/1
f 27/57/2 31/178/2 32/58/2
f 31/60/3 29/265/3 30/61/3
f 26/63/4 28/266/4 32/64/4
f 25/66/5 27/267/5 28/67/5
f 29/69/6 25/268/6 26/70/6
f 37/72/1 39/269/1 35/73/1
f 35/75/5 39/270/5 40/76/5
f 39/78/2 37/22/2 38/24/2
f 38/79/4 34/271/4 36/80/4
f 33/82/6 35/272/6 36/83/6
f 37/85/3 33/273/3 34/86/3
f 45/88/1 47/274/1 43/89/1
f 43/91/5 47/275/5 48/92/5
f 47/94/2 45/276/2 46/95/2
f 46/97/4 42/277/4 44/98/4
f 41/100/6 43/21/6 44/101/6
f 45/103/3 41/278/3 42/104/3
f 53/106/1 55/279/1 51/107/1
f 51/109/5 55/280/5 56/110/5
f 55/112/2 53/281/2 54/113/2
f 50/115/4 52/282/4 56/116/4
f 49/118/6 51/283/6 52/119/6
f 53/121/3 49/135/3 50/122/3
f 61/124/1 63/284/1 59/125/1
f 59/127/5 63/33/5 64/35/5
f 63/129/2 61/285/2 62/130/2
f 62/132/4 58/286/4 60/133/4
f 57/135/6 59/287/6 60/136/6
f 61/138/3 57/288/3 58/139/3
f 69/141/1 71/289/1 67/142/1
f 67/144/5 71/290/5 72/145/5
f 71/147/2 69/291/2 70/148/2
f 70/149/4 66/292/4 68/150/4
f 65/152/6 67/293/6 68/153/6
f 69/155/3 65/222/3 66/156/3
f 77/158/1 79/294/1 75/159/1
f 75/161/5 79/295/5 80/162/5
f 79/164/2 77/296/2 78/165/2
f 74/167/4 76/297/4 80/168/4
f 73/170/6 75/298/6 76/171/6
f 77/173/3 73/299/3 74/174/3
f 85/176/1 87/182/1 83/177/1
f 83/179/2 87/300/2 88/180/2
f 87/182/3 85/301/3 86/183/3
f 82/185/4 84/302/4 88/186/4
f 81/188/5 83/303/5 84/189/5
f 85/191/6 81/304/6 82/192/6
f 93/194/1 95/305/1 91/195/1
f 91/197/2 95/306/2 96/198/2
f 95/200/3 93/307/3 94/201/3
f 90/203/4 92/308/4 96/204/4
f 89/205/5 91/309/5 92/206/5
f 93/208/6 89/213/6 90/209/6
f 101/211/1 103/310/1 99/212/1
f 99/214/2 103/311/2 104/215/2
f 103/217/3 101/312/3 102/218/3
f 98/220/4 100/313/4 104/221/4
f 97/223/5 99/314/5 100/224/5
f 101/226/6 97/315/6 98/227/6
f 109/229/1 111/316/1 107/230/1
f 107/232/2 111/317/2 112/233/2
f 111/235/3 109/318/3 110/236/3
f 106/238/4 108/319/4 112/239/4
f 105/241/5 107/320/5 108/242/5
f 109/244/6 105/321/6 106/245/6
